<?xml version="1.0" standalone="no"?>
<!DOCTYPE svg PUBLIC "-//W3C//DTD SVG 20010904//EN"
 "http://www.w3.org/TR/2001/REC-SVG-20010904/DTD/svg10.dtd">
<svg version="1.0" xmlns="http://www.w3.org/2000/svg"
 width="158.000000pt" height="124.000000pt" viewBox="0 0 158.000000 124.000000"
 preserveAspectRatio="xMidYMid meet">

<g transform="translate(0.000000,124.000000) scale(0.100000,-0.100000)"
fill="#000000" stroke="none">
<path d="M545 937 c-33 -16 -60 -38 -80 -67 l-30 -43 0 -328 0 -327 30 -43
c58 -82 67 -84 425 -87 l315 -2 53 31 c43 24 58 40 78 82 23 51 24 56 24 343
0 197 -4 302 -12 325 -18 54 -48 87 -102 114 -50 25 -50 25 -350 25 -294 0
-302 -1 -351 -23z m511 -232 c71 -42 84 -82 84 -263 l0 -152 -116 0 c-90 0
-122 4 -144 17 -31 18 -50 51 -50 87 0 18 -7 26 -27 31 -42 10 -73 44 -80 88
-4 29 -12 41 -32 48 -55 21 -101 84 -101 139 l0 30 212 0 c207 0 212 0 254
-25z"/>
<path d="M650 674 c0 -39 64 -74 138 -74 35 0 54 -5 65 -18 26 -28 21 -32 -33
-32 -43 0 -50 -3 -50 -20 0 -36 35 -60 88 -60 31 -1 55 -7 70 -19 30 -26 28
-31 -13 -31 -30 0 -35 -3 -35 -23 0 -44 28 -57 124 -57 l88 0 -4 136 -3 136
-37 34 -38 34 -180 0 c-99 0 -180 -3 -180 -6z"/>
</g>
</svg>
